<svg xmlns="http://www.w3.org/2000/svg" xmlns:xlink="http://www.w3.org/1999/xlink" width="500" zoomAndPan="magnify" viewBox="0 0 375 374.999991" height="500" preserveAspectRatio="xMidYMid meet" version="1.0"><defs><g/></defs><g fill="#ff0000" fill-opacity="1"><g transform="translate(62.85035, 334.626866)"><g><path d="M 6.398438 0 L 71.199219 0 L 82.398438 -30.800781 L 177.199219 -30.800781 L 188.796875 0 L 253.199219 0 L 132.800781 -296.398438 L 126.800781 -296.398438 Z M 103.199219 -84.398438 L 130 -158.800781 L 156 -84.398438 Z M 103.199219 -84.398438 "/></g></g></g><g fill="#00ffff" fill-opacity="1"><g transform="translate(50.962151, 330.764155)"><g><path d="M 6.398438 0 L 71.199219 0 L 82.398438 -30.800781 L 177.199219 -30.800781 L 188.796875 0 L 253.199219 0 L 132.800781 -296.398438 L 126.800781 -296.398438 Z M 103.199219 -84.398438 L 130 -158.800781 L 156 -84.398438 Z M 103.199219 -84.398438 "/></g></g></g><g fill="#ffffff" fill-opacity="1"><g transform="translate(56.906251, 332.695509)"><g><path d="M 6.398438 0 L 71.199219 0 L 82.398438 -30.800781 L 177.199219 -30.800781 L 188.796875 0 L 253.199219 0 L 132.800781 -296.398438 L 126.800781 -296.398438 Z M 103.199219 -84.398438 L 130 -158.800781 L 156 -84.398438 Z M 103.199219 -84.398438 "/></g></g></g></svg>