<?xml version="1.0" standalone="no"?>
<!DOCTYPE svg PUBLIC "-//W3C//DTD SVG 20010904//EN"
 "http://www.w3.org/TR/2001/REC-SVG-20010904/DTD/svg10.dtd">
<svg version="1.0" xmlns="http://www.w3.org/2000/svg"
 width="870.000000pt" height="870.000000pt" viewBox="0 0 870.000000 870.000000"
 preserveAspectRatio="xMidYMid meet">

<g transform="translate(0.000000,870.000000) scale(0.100000,-0.100000)"
fill="#FFFFFF" stroke="none">
<path d="M2801 4362 c-288 -900 -526 -1643 -529 -1650 -3 -10 65 -12 333 -10
l337 3 102 335 102 335 536 3 536 2 11 -32 c6 -18 51 -170 101 -337 49 -167
91 -306 93 -308 2 -2 188 -2 414 -1 l409 3 -515 1647 -516 1648 -445 0 -445 0
-524 -1638z m1063 206 c91 -307 166 -562 166 -568 0 -7 -117 -10 -348 -10
l-349 0 175 575 c97 317 179 572 183 568 3 -5 81 -259 173 -565z"/>
<path d="M4470 5923 c32 -103 221 -707 231 -740 l11 -33 690 0 690 0 -5 23
c-3 12 -47 199 -98 415 l-93 392 -722 0 -722 0 18 -57z"/>
<path d="M4810 4823 c32 -103 221 -707 231 -740 l11 -33 690 0 690 0 -5 23
c-3 12 -47 199 -98 415 l-93 392 -722 0 -722 0 18 -57z"/>
</g>
</svg>
